<?xml version="1.0" encoding="utf-8"?>
<!-- Generator: Adobe Illustrator 25.0.0, SVG Export Plug-In . SVG Version: 6.00 Build 0)  -->
<svg version="1.1" id="Слой_1" xmlns="http://www.w3.org/2000/svg" xmlns:xlink="http://www.w3.org/1999/xlink" x="0px" y="0px"
	 viewBox="0 0 42.52 17.68" style="enable-background:new 0 0 42.52 17.68;" xml:space="preserve">
<style type="text/css">
	.st0{fill:#9D9C9C;}
	.st1{fill-rule:evenodd;clip-rule:evenodd;fill:#FFCC00;}
	.st2{fill-rule:evenodd;clip-rule:evenodd;fill:#F07F3C;}
</style>
<g>
	<g>
		<path class="st0" d="M25.75,6.6l2.45-5.76h1.16l2.45,5.76H30.5l-0.52-1.28h-2.42L27.03,6.6H25.75z M28,4.2h1.52l-0.76-1.86L28,4.2
			z"/>
	</g>
	<g>
		<path class="st0" d="M32.1,6.6V0.88h1.26v2.5l2.32-2.5h1.52l-2.33,2.43l2.44,3.29H35.8l-1.77-2.44l-0.66,0.69V6.6H32.1z"/>
	</g>
	<g>
		<path class="st0" d="M37.48,6.6V0.88h4.32V2h-3.07v1.16h2.7v1.12h-2.7v1.2h3.11V6.6H37.48z"/>
	</g>
	<g>
		<path class="st0" d="M19.73,13.55V7.76h1.17l2.71,3.56V7.76h1.26v5.79h-1.08l-2.8-3.68v3.68H19.73z"/>
	</g>
	<g>
		<path class="st0" d="M30.68,12.78c-0.59,0.58-1.32,0.87-2.2,0.87s-1.61-0.29-2.2-0.87c-0.58-0.58-0.87-1.29-0.87-2.13
			c0-0.83,0.29-1.54,0.88-2.12c0.59-0.58,1.32-0.87,2.2-0.87s1.61,0.29,2.2,0.87c0.58,0.58,0.87,1.29,0.87,2.12
			C31.56,11.49,31.27,12.2,30.68,12.78z M27.23,11.95c0.33,0.35,0.75,0.53,1.26,0.53s0.92-0.17,1.25-0.52
			c0.33-0.35,0.49-0.78,0.49-1.29c0-0.51-0.17-0.94-0.5-1.29c-0.33-0.35-0.75-0.53-1.26-0.53s-0.92,0.18-1.25,0.53
			c-0.33,0.35-0.49,0.78-0.49,1.29C26.74,11.16,26.9,11.59,27.23,11.95z"/>
	</g>
	<g>
		<path class="st0" d="M33.56,13.59l-2.34-5.83h1.41l1.51,4.08l1.51-4.08h1.37l-2.34,5.83H33.56z"/>
	</g>
	<g>
		<path class="st0" d="M36,13.55l2.48-5.83h1.17l2.48,5.83H40.8l-0.53-1.3h-2.45l-0.53,1.3H36z M38.28,11.13h1.54l-0.77-1.88
			L38.28,11.13z"/>
	</g>
	<g>
		<path class="st0" d="M19.73,6.6V0.88h1.36l1.5,2.42l1.5-2.42h1.36V6.6H24.2V2.86l-1.61,2.44h-0.03l-1.59-2.42V6.6H19.73z"/>
	</g>
	<g>
		<path class="st1" d="M5.55,0.6L5.55,0.6c0.65,0,1.18,0.53,1.18,1.18v4.16c0,0.65-0.53,1.18-1.18,1.18c-0.65,0-1.18-0.53-1.18-1.18
			V1.78C4.37,1.13,4.9,0.6,5.55,0.6"/>
		<path class="st2" d="M4.71,0.93L4.71,0.93c0.46-0.46,1.21-0.46,1.67,0l2.94,2.94c0.46,0.46,0.46,1.21,0,1.67
			C8.87,6,8.12,6,7.66,5.54L4.71,2.6C4.26,2.14,4.26,1.39,4.71,0.93"/>
		<path class="st2" d="M11.43,0.62L11.43,0.62c-0.65,0-1.18,0.53-1.18,1.18v4.16c0,0.65,0.53,1.18,1.18,1.18
			c0.65,0,1.18-0.53,1.18-1.18V1.8C12.61,1.15,12.08,0.62,11.43,0.62"/>
		<path class="st1" d="M12.27,0.95L12.27,0.95c-0.46-0.46-1.21-0.46-1.67,0L7.66,3.89C7.2,4.35,7.2,5.1,7.66,5.56
			c0.46,0.46,1.21,0.46,1.67,0l2.94-2.94C12.73,2.16,12.73,1.41,12.27,0.95"/>
		<path class="st1" d="M16.78,5.95L16.78,5.95c0,0.65-0.53,1.18-1.18,1.18h-4.16c-0.65,0-1.18-0.53-1.18-1.18
			c0-0.65,0.53-1.18,1.18-1.18h4.16C16.25,4.77,16.78,5.3,16.78,5.95"/>
		<path class="st2" d="M16.45,5.12L16.45,5.12c0.46,0.46,0.46,1.21,0,1.67L13.5,9.73c-0.46,0.46-1.21,0.46-1.67,0
			c-0.46-0.46-0.46-1.21,0-1.67l2.94-2.94C15.24,4.66,15.99,4.66,16.45,5.12"/>
		<path class="st2" d="M16.76,11.83L16.76,11.83c0-0.65-0.53-1.18-1.18-1.18h-4.16c-0.65,0-1.18,0.53-1.18,1.18
			c0,0.65,0.53,1.18,1.18,1.18h4.16C16.23,13.01,16.76,12.48,16.76,11.83"/>
		<path class="st1" d="M16.43,12.67L16.43,12.67c0.46-0.46,0.46-1.21,0-1.67l-2.94-2.94c-0.46-0.46-1.21-0.46-1.67,0
			c-0.46,0.46-0.46,1.21,0,1.67l2.94,2.94C15.22,13.13,15.97,13.13,16.43,12.67"/>
		<path class="st1" d="M11.45,17.14L11.45,17.14c-0.65,0-1.18-0.53-1.18-1.18V11.8c0-0.65,0.53-1.18,1.18-1.18
			c0.65,0,1.18,0.53,1.18,1.18v4.16C12.63,16.61,12.1,17.14,11.45,17.14"/>
		<path class="st2" d="M12.29,16.81L12.29,16.81c-0.46,0.46-1.21,0.46-1.67,0l-2.94-2.94c-0.46-0.46-0.46-1.21,0-1.67
			c0.46-0.46,1.21-0.46,1.67,0l2.94,2.94C12.75,15.6,12.75,16.35,12.29,16.81"/>
		<path class="st2" d="M5.57,17.12L5.57,17.12c0.65,0,1.18-0.53,1.18-1.18v-4.16c0-0.65-0.53-1.18-1.18-1.18
			c-0.65,0-1.18,0.53-1.18,1.18v4.16C4.39,16.59,4.92,17.12,5.57,17.12"/>
		<path class="st1" d="M4.73,16.79L4.73,16.79c0.46,0.46,1.21,0.46,1.67,0l2.94-2.94c0.46-0.46,0.46-1.21,0-1.67
			c-0.46-0.46-1.21-0.46-1.67,0l-2.94,2.94C4.28,15.58,4.28,16.33,4.73,16.79"/>
		<path class="st1" d="M0.22,11.78L0.22,11.78c0-0.65,0.53-1.18,1.18-1.18h4.16c0.65,0,1.18,0.53,1.18,1.18
			c0,0.65-0.53,1.18-1.18,1.18H1.4C0.76,12.96,0.22,12.43,0.22,11.78"/>
		<path class="st2" d="M0.55,12.62L0.55,12.62c-0.46-0.46-0.46-1.21,0-1.67L3.5,8.01c0.46-0.46,1.21-0.46,1.67,0
			c0.46,0.46,0.46,1.21,0,1.67l-2.94,2.94C1.76,13.08,1.01,13.08,0.55,12.62"/>
		<path class="st2" d="M0.25,5.9L0.25,5.9c0,0.65,0.53,1.18,1.18,1.18h4.16c0.65,0,1.18-0.53,1.18-1.18c0-0.65-0.53-1.18-1.18-1.18
			H1.42C0.78,4.72,0.25,5.25,0.25,5.9"/>
		<path class="st1" d="M0.58,5.07L0.58,5.07c-0.46,0.46-0.46,1.21,0,1.67l2.94,2.94c0.46,0.46,1.21,0.46,1.67,0
			c0.46-0.46,0.46-1.21,0-1.67L2.24,5.07C1.79,4.61,1.03,4.61,0.58,5.07"/>
	</g>
	<path class="st0" d="M41.09,16.81c-0.1,0-0.2-0.02-0.29-0.07l0.07-0.16c0.07,0.03,0.14,0.05,0.22,0.05c0.06,0,0.11-0.02,0.16-0.06
		c0.04-0.04,0.08-0.11,0.13-0.2L40.73,15h0.23l0.5,1.15L41.91,15h0.22l-0.58,1.42c-0.06,0.14-0.12,0.24-0.19,0.3
		C41.28,16.79,41.19,16.81,41.09,16.81 M40.17,16.41c-0.2,0-0.37-0.07-0.5-0.21c-0.14-0.14-0.2-0.31-0.2-0.51
		c0-0.2,0.07-0.37,0.2-0.51c0.14-0.14,0.3-0.21,0.5-0.21c0.21,0,0.4,0.08,0.55,0.25l-0.13,0.14c-0.13-0.14-0.27-0.2-0.42-0.2
		c-0.14,0-0.26,0.05-0.35,0.16c-0.1,0.1-0.14,0.23-0.14,0.38c0,0.15,0.05,0.28,0.15,0.38c0.1,0.1,0.22,0.16,0.36,0.16
		c0.15,0,0.29-0.07,0.42-0.21l0.14,0.13C40.57,16.32,40.38,16.41,40.17,16.41z M38.09,16.38V15h0.21v0.24
		c0.11-0.18,0.27-0.27,0.47-0.27c0.16,0,0.29,0.05,0.39,0.15c0.09,0.1,0.14,0.23,0.14,0.4v0.86h-0.21v-0.81
		c0-0.13-0.03-0.23-0.1-0.31c-0.07-0.07-0.16-0.11-0.28-0.11c-0.12,0-0.22,0.04-0.3,0.12c-0.08,0.08-0.12,0.18-0.12,0.31v0.79H38.09
		z M36.83,15.61h0.89c-0.01-0.13-0.06-0.24-0.13-0.33c-0.08-0.09-0.18-0.13-0.31-0.13c-0.12,0-0.22,0.04-0.3,0.13
		C36.89,15.36,36.85,15.47,36.83,15.61z M36.83,15.77c0.01,0.14,0.07,0.25,0.16,0.33c0.09,0.08,0.2,0.12,0.33,0.12
		c0.17,0,0.31-0.06,0.43-0.19l0.13,0.11c-0.15,0.17-0.34,0.26-0.57,0.26c-0.19,0-0.36-0.07-0.49-0.2c-0.13-0.13-0.2-0.31-0.2-0.52
		c0-0.2,0.06-0.37,0.19-0.51c0.13-0.14,0.28-0.21,0.47-0.21c0.2,0,0.35,0.07,0.47,0.21c0.12,0.14,0.17,0.31,0.17,0.52
		c0,0.03,0,0.05,0,0.07H36.83z M35.74,16.09c0.14,0,0.25-0.04,0.35-0.13c0.1-0.09,0.15-0.2,0.15-0.34c0-0.14-0.05-0.25-0.15-0.34
		c-0.1-0.09-0.22-0.13-0.36-0.13c-0.14,0-0.25,0.04-0.34,0.13c-0.09,0.09-0.14,0.2-0.14,0.34c0,0.14,0.05,0.25,0.14,0.34
		C35.5,16.05,35.61,16.09,35.74,16.09z M35.74,16.81c-0.23,0-0.44-0.06-0.63-0.19l0.09-0.16c0.16,0.12,0.34,0.18,0.53,0.18
		c0.15,0,0.28-0.04,0.37-0.13c0.09-0.08,0.13-0.21,0.13-0.36v-0.16c-0.15,0.19-0.33,0.29-0.54,0.29c-0.17,0-0.33-0.06-0.45-0.18
		c-0.13-0.12-0.19-0.28-0.19-0.47c0-0.19,0.06-0.35,0.19-0.47c0.13-0.12,0.28-0.18,0.45-0.18c0.22,0,0.4,0.09,0.54,0.28V15h0.21
		v1.14c0,0.21-0.06,0.37-0.18,0.49C36.14,16.75,35.97,16.81,35.74,16.81z M34.23,16.24c0.13,0,0.24-0.03,0.33-0.1
		c0.09-0.07,0.13-0.16,0.13-0.27v-0.13c-0.14-0.04-0.27-0.06-0.4-0.06c-0.13,0-0.22,0.03-0.3,0.08c-0.07,0.05-0.11,0.12-0.11,0.21
		c0,0.08,0.03,0.15,0.1,0.2C34.05,16.22,34.13,16.24,34.23,16.24z M34.19,16.41c-0.14,0-0.26-0.04-0.36-0.11
		c-0.1-0.08-0.15-0.18-0.15-0.32c0-0.14,0.05-0.26,0.16-0.33c0.11-0.08,0.25-0.12,0.43-0.12c0.14,0,0.28,0.02,0.42,0.06v-0.04
		c0-0.12-0.04-0.21-0.11-0.28c-0.07-0.06-0.17-0.1-0.3-0.1c-0.14,0-0.27,0.03-0.42,0.1L33.8,15.1c0.17-0.08,0.34-0.12,0.5-0.12
		c0.2,0,0.34,0.05,0.45,0.15c0.1,0.1,0.14,0.23,0.14,0.41v0.84h-0.2v-0.21C34.56,16.33,34.4,16.41,34.19,16.41z M32.56,16.4
		c-0.12,0-0.21-0.03-0.28-0.09c-0.07-0.06-0.11-0.16-0.11-0.29v-0.83h-0.19V15h0.19v-0.42h0.21V15h0.44v0.18h-0.44v0.81
		c0,0.15,0.08,0.23,0.23,0.23c0.07,0,0.13-0.02,0.2-0.05v0.18C32.73,16.38,32.65,16.4,32.56,16.4z M30.65,16.38V15h0.21v0.24
		c0.11-0.18,0.27-0.27,0.47-0.27c0.16,0,0.29,0.05,0.39,0.15c0.09,0.1,0.14,0.23,0.14,0.4v0.86h-0.21v-0.81
		c0-0.13-0.03-0.23-0.1-0.31c-0.07-0.07-0.16-0.11-0.28-0.11c-0.12,0-0.22,0.04-0.3,0.12c-0.08,0.08-0.12,0.18-0.12,0.31v0.79H30.65
		z M29.38,15.61h0.89c-0.01-0.13-0.06-0.24-0.13-0.33c-0.08-0.09-0.18-0.13-0.31-0.13c-0.12,0-0.22,0.04-0.3,0.13
		C29.45,15.36,29.4,15.47,29.38,15.61z M29.38,15.77c0.01,0.14,0.07,0.25,0.16,0.33c0.09,0.08,0.2,0.12,0.33,0.12
		c0.17,0,0.31-0.06,0.43-0.19l0.13,0.11c-0.15,0.17-0.34,0.26-0.57,0.26c-0.19,0-0.36-0.07-0.49-0.2c-0.13-0.13-0.2-0.31-0.2-0.52
		c0-0.2,0.06-0.37,0.19-0.51c0.13-0.14,0.28-0.21,0.47-0.21c0.2,0,0.35,0.07,0.47,0.21c0.12,0.14,0.17,0.31,0.17,0.52
		c0,0.03,0,0.05,0,0.07H29.38z M26.92,16.38V15h0.21v0.23c0.12-0.17,0.26-0.26,0.45-0.26c0.21,0,0.35,0.09,0.44,0.27
		c0.12-0.18,0.28-0.27,0.49-0.27c0.16,0,0.28,0.05,0.37,0.15c0.09,0.1,0.14,0.23,0.14,0.41v0.85H28.8v-0.81
		c0-0.13-0.03-0.24-0.09-0.31c-0.06-0.07-0.15-0.11-0.26-0.11c-0.11,0-0.2,0.04-0.27,0.11c-0.07,0.08-0.11,0.18-0.11,0.31v0.79h-0.2
		v-0.81c0-0.13-0.03-0.23-0.09-0.3c-0.06-0.07-0.15-0.11-0.26-0.11c-0.11,0-0.2,0.04-0.27,0.12c-0.07,0.08-0.11,0.19-0.11,0.31v0.79
		H26.92z M26.49,16.4c-0.12,0-0.21-0.03-0.28-0.09c-0.07-0.06-0.11-0.16-0.11-0.29v-0.83h-0.19V15h0.19v-0.42h0.21V15h0.44v0.18
		h-0.44v0.81c0,0.15,0.08,0.23,0.23,0.23c0.07,0,0.13-0.02,0.2-0.05v0.18C26.67,16.38,26.59,16.4,26.49,16.4z M25.54,16.38V15h0.21
		v1.38H25.54z M25.53,14.7v-0.23h0.23v0.23H25.53z M24.58,16.41c-0.16,0-0.29-0.05-0.39-0.15c-0.09-0.1-0.14-0.23-0.14-0.4V15h0.21
		v0.81c0,0.13,0.03,0.23,0.1,0.31c0.07,0.07,0.16,0.11,0.28,0.11c0.12,0,0.22-0.04,0.3-0.12c0.08-0.08,0.12-0.18,0.12-0.31V15h0.2
		v1.38h-0.2v-0.24C24.94,16.32,24.78,16.41,24.58,16.41z M23.19,16.38V15h0.21v0.36c0.05-0.12,0.13-0.21,0.23-0.29
		c0.1-0.07,0.21-0.1,0.34-0.1v0.22h-0.02c-0.16,0-0.29,0.06-0.39,0.17c-0.1,0.11-0.15,0.27-0.15,0.47v0.55H23.19z M22.48,16.41
		c-0.2,0-0.37-0.07-0.5-0.21c-0.14-0.14-0.2-0.31-0.2-0.51c0-0.2,0.07-0.37,0.2-0.51c0.14-0.14,0.3-0.21,0.5-0.21
		c0.21,0,0.4,0.08,0.55,0.25l-0.13,0.14c-0.13-0.14-0.27-0.2-0.42-0.2c-0.14,0-0.26,0.05-0.35,0.16c-0.1,0.1-0.14,0.23-0.14,0.38
		c0,0.15,0.05,0.28,0.15,0.38c0.1,0.1,0.22,0.16,0.36,0.16c0.15,0,0.29-0.07,0.42-0.21l0.14,0.13
		C22.88,16.32,22.7,16.41,22.48,16.41z M20.6,15.61h0.89c-0.01-0.13-0.06-0.24-0.13-0.33c-0.08-0.09-0.18-0.13-0.31-0.13
		c-0.12,0-0.22,0.04-0.3,0.13C20.66,15.36,20.61,15.47,20.6,15.61z M20.6,15.77c0.01,0.14,0.07,0.25,0.16,0.33
		c0.09,0.08,0.2,0.12,0.33,0.12c0.17,0,0.31-0.06,0.43-0.19l0.13,0.11c-0.15,0.17-0.34,0.26-0.57,0.26c-0.19,0-0.36-0.07-0.49-0.2
		c-0.13-0.13-0.2-0.31-0.2-0.52c0-0.2,0.06-0.37,0.19-0.51c0.13-0.14,0.28-0.21,0.47-0.21c0.2,0,0.35,0.07,0.47,0.21
		c0.12,0.14,0.17,0.31,0.17,0.52c0,0.03,0,0.05,0,0.07H20.6z M19.65,16.38V15h0.21v0.36c0.05-0.12,0.13-0.21,0.23-0.29
		c0.1-0.07,0.21-0.1,0.34-0.1v0.22H20.4c-0.16,0-0.29,0.06-0.39,0.17c-0.1,0.11-0.15,0.27-0.15,0.47v0.55H19.65z"/>
</g>
</svg>
