<?xml version="1.0" encoding="utf-8"?>
<!-- Generator: Adobe Illustrator 25.0.0, SVG Export Plug-In . SVG Version: 6.00 Build 0)  -->
<svg version="1.1" id="Слой_1" xmlns="http://www.w3.org/2000/svg" xmlns:xlink="http://www.w3.org/1999/xlink" x="0px" y="0px"
	 viewBox="0 0 32 20.82" style="enable-background:new 0 0 32 20.82;" xml:space="preserve">
<style type="text/css">
	.st0{fill-rule:evenodd;clip-rule:evenodd;fill:#FFFFFF;stroke:#FFFFFF;stroke-miterlimit:10;}
</style>
<g id="Page-1">
	<g id="icon-3-mail-envelope-closed">
		<path id="mail-envelope-closed" class="st0" d="M2.03,1.94C1.79,2.17,1.64,2.49,1.64,2.85v14.98c0,0.7,0.55,1.26,1.25,1.26h26.24
			c0.69,0,1.25-0.56,1.25-1.26V2.85c0-0.36-0.15-0.69-0.39-0.92L16.01,14.1L2.03,1.94L2.03,1.94L2.03,1.94z M2.89,0.34
			c-1.38,0-2.5,1.12-2.5,2.49v15.02c0,1.38,1.11,2.49,2.5,2.49h26.24c1.38,0,2.5-1.12,2.5-2.49V2.84c0-1.38-1.11-2.49-2.5-2.49H2.89
			L2.89,0.34z M16.01,12.47l12.5-10.88h-25L16.01,12.47L16.01,12.47z"/>
	</g>
</g>
</svg>
